<svg width="364" height="360" viewBox="0 0 364 360" fill="none" xmlns="http://www.w3.org/2000/svg">
<path fill-rule="evenodd" clip-rule="evenodd" d="M126.334 283.925C127.703 283.983 129.069 284.019 130.432 284.035C157.871 284.349 183.886 293.887 204.976 310.492C217.776 320.571 233.851 326.838 251.724 327.593C298.537 329.57 339.726 293.271 344.031 246.245C345.929 225.5 340.273 206.176 329.339 190.891C319.98 177.804 315.611 161.604 317.468 145.156C317.492 144.944 317.514 144.732 317.535 144.521C320.315 116.805 300.368 93.5387 272.772 92.3207C272.614 92.3132 272.456 92.3074 272.299 92.3023C264.851 92.0443 258.217 88.0393 254.614 81.6663C234.07 45.3308 195.944 20.4011 150.316 18.4815C77.4087 15.4146 12.825 72.4059 6.20831 145.648C-0.412827 218.948 53.3684 280.856 126.334 283.925Z" fill="#EFF6F9"/>
<path d="M215.642 355.482L115.929 340.239C104.856 338.542 97.2521 328.202 98.9469 317.138L139.602 51.802C141.297 40.7396 151.648 33.1435 162.724 34.8368L262.434 50.0829C273.511 51.7776 281.113 62.1177 279.417 73.1798L238.763 338.518C237.068 349.582 226.717 357.175 215.642 355.482Z" fill="#9E3667"/>
<path d="M209.518 354.549L109.805 339.302C98.7318 337.61 91.1284 327.267 92.8227 316.206L133.477 50.8682C135.173 39.806 145.524 32.2099 156.599 33.903L256.31 49.1504C267.385 50.8423 274.989 61.1838 273.293 72.2462L232.638 337.583C230.944 348.646 220.591 356.242 209.518 354.549Z" fill="white"/>
<path d="M271.573 83.5178L233.992 328.796C232.823 336.421 223.337 341.294 215.709 340.128L105.873 323.333C98.2406 322.166 93.0074 315.043 94.1756 307.417L131.757 62.1401C132.926 54.5138 140.053 49.2744 147.687 50.4414L257.52 67.2362C265.148 68.4022 272.741 75.8922 271.573 83.5178Z" fill="white"/>
<path fill-rule="evenodd" clip-rule="evenodd" d="M232.103 57.9705C233.947 58.253 235.673 56.987 235.954 55.1443C236.238 53.3001 234.971 51.5782 233.127 51.2959C231.283 51.0149 229.558 52.2794 229.274 54.1236C228.993 55.9662 230.258 57.6897 232.103 57.9705ZM183.007 48.8275C183.968 48.9746 184.866 48.3154 185.014 47.3542C185.161 46.393 184.501 45.4954 183.54 45.3482C182.578 45.2012 181.679 45.8607 181.533 46.8218C181.384 47.7827 182.045 48.6805 183.007 48.8275ZM178.263 46.3225C178.115 47.2823 177.217 47.9433 176.256 47.7962C175.294 47.6474 174.635 46.7514 174.782 45.7902C174.93 44.8289 175.828 44.1698 176.788 44.3169C177.75 44.4638 178.41 45.3617 178.263 46.3225ZM196.878 50.1172L213.023 52.5851C213.536 52.6645 214.015 52.3128 214.093 51.8003C214.171 51.2877 213.819 50.8094 213.306 50.7314L197.161 48.2632C196.65 48.1855 196.171 48.5357 196.091 49.0484C196.013 49.5606 196.364 50.0394 196.878 50.1172Z" fill="#DEEDF2"/>
<path fill-rule="evenodd" clip-rule="evenodd" d="M215.627 355.421L115.914 340.178C104.841 338.482 97.2373 328.142 98.932 317.078L139.587 51.7414C141.282 40.6791 151.633 33.083 162.709 34.7762L262.419 50.0223C273.496 51.7171 281.098 62.0572 279.402 73.1193L238.748 338.457C237.053 349.521 226.702 357.114 215.627 355.421Z" fill="#9E3667"/>
<path fill-rule="evenodd" clip-rule="evenodd" d="M209.504 354.489L109.791 339.241C98.7179 337.55 91.1145 327.206 92.8088 316.145L133.463 50.8076C135.159 39.7455 145.51 32.1494 156.585 33.8424L256.296 49.0899C267.371 50.7818 274.975 61.1232 273.279 72.1857L232.625 337.522C230.93 348.586 220.577 356.181 209.504 354.489Z" fill="white"/>
<path d="M271.558 83.4573L233.976 328.736C232.808 336.36 223.321 341.234 215.694 340.068L105.858 323.273C98.2254 322.105 92.9922 314.982 94.1603 307.356L131.742 62.0796C132.91 54.4533 140.038 49.2139 147.671 50.3808L257.505 67.1756C265.133 68.3417 272.726 75.8317 271.558 83.4573Z" fill="white"/>
<path fill-rule="evenodd" clip-rule="evenodd" d="M235.222 320.616L233.977 328.735C233.912 329.144 233.828 329.543 233.718 329.931C231.801 336.863 222.913 341.174 215.696 340.07L105.86 323.272C99.1323 322.244 94.2624 316.587 94.0125 310.034C93.9786 309.152 94.0226 308.258 94.1626 307.355L95.4063 299.236L235.222 320.616Z" fill="#CEDEE7"/>
<path d="M235.225 320.616L233.98 328.735C233.915 329.144 233.831 329.543 233.721 329.931L233.647 329.921L233.975 327.781L94.3096 306.427L95.4092 299.236L235.225 320.616Z" fill="#EC0000"/>
<path fill-rule="evenodd" clip-rule="evenodd" d="M232.086 57.91C233.931 58.1924 235.656 56.9264 235.937 55.0838C236.221 53.2396 234.954 51.5177 233.11 51.2353C231.266 50.9543 229.541 52.2188 229.258 54.0631C228.976 55.9057 230.241 57.6292 232.086 57.91ZM182.99 48.7668C183.951 48.9139 184.849 48.2547 184.997 47.2935C185.144 46.3323 184.484 45.4348 183.523 45.2875C182.561 45.1406 181.662 45.8 181.516 46.7611C181.367 47.7221 182.028 48.6199 182.99 48.7668ZM178.246 46.262C178.098 47.2217 177.2 47.8828 176.239 47.7357C175.277 47.5869 174.618 46.6908 174.765 45.7296C174.913 44.7684 175.812 44.1093 176.772 44.2563C177.734 44.4033 178.393 45.3012 178.246 46.262ZM196.861 50.0567L213.007 52.5245C213.519 52.604 213.998 52.2523 214.076 51.7397C214.154 51.2271 213.802 50.7488 213.289 50.6709L197.144 48.2026C196.633 48.1249 196.154 48.4751 196.074 48.9878C195.996 49.5 196.347 49.9788 196.861 50.0567Z" fill="#DEEDF2"/>
<path d="M271.555 83.4618L265.574 122.495L125.758 101.118L131.739 62.0841C132.907 54.4578 140.035 49.2177 147.668 50.3853L257.502 67.1801C265.13 68.3462 272.723 75.8359 271.555 83.4618Z" fill="#EC0000"/>
<path fill-rule="evenodd" clip-rule="evenodd" d="M236.752 310.719L96.9407 289.328L125.758 101.221L265.567 122.612L236.752 310.719Z" fill="#CEDEE7"/>
<path fill-rule="evenodd" clip-rule="evenodd" d="M245.84 148.652L135.153 131.715L136.977 119.977L247.662 136.914L245.84 148.652Z" fill="white"/>
<ellipse cx="169.92" cy="274.258" rx="20" ry="20" transform="rotate(8.7 169.92 274.258)" fill="#EC0000"/>
<path fill-rule="evenodd" clip-rule="evenodd" d="M164.287 277.803C165.352 277.501 165.989 276.411 165.73 275.335L165.221 273.216C168.046 272.835 172.118 273.46 174.716 274.67L173.597 276.54C173.029 277.489 173.31 278.718 174.235 279.326L175.933 280.441C176.655 280.914 177.595 280.89 178.29 280.379L180.681 278.623C181.75 277.837 181.98 276.334 181.194 275.264C175.971 268.154 165.973 266.624 158.862 271.847C157.793 272.633 157.562 274.136 158.348 275.205L160.104 277.597C160.615 278.292 161.505 278.597 162.335 278.36L164.287 277.803Z" fill="white"/>
<path fill-rule="evenodd" clip-rule="evenodd" d="M175.668 237.177C183.311 238.346 190.455 233.099 191.625 225.456C192.794 217.812 187.547 210.668 179.904 209.499C172.261 208.329 165.117 213.577 163.947 221.22C162.777 228.863 168.025 236.007 175.668 237.177ZM175.063 241.131C184.89 242.634 194.075 235.887 195.579 226.061C197.082 216.234 190.335 207.049 180.509 205.545C170.682 204.041 161.497 210.788 159.993 220.615C158.489 230.442 165.236 239.627 175.063 241.131Z" fill="white"/>
<path fill-rule="evenodd" clip-rule="evenodd" d="M183.231 187.751C190.874 188.921 198.018 183.673 199.187 176.03C200.357 168.387 195.109 161.243 187.466 160.073C179.823 158.904 172.679 164.151 171.509 171.794C170.34 179.437 175.588 186.581 183.231 187.751ZM182.626 191.705C192.452 193.209 201.638 186.462 203.141 176.635C204.645 166.808 197.898 157.623 188.071 156.119C178.244 154.615 169.059 161.363 167.556 171.189C166.052 181.016 172.799 190.201 182.626 191.705Z" fill="white"/>
<path fill-rule="evenodd" clip-rule="evenodd" d="M219.161 243.833C226.804 245.003 233.948 239.755 235.118 232.112C236.287 224.469 231.04 217.325 223.397 216.155C215.754 214.986 208.61 220.233 207.44 227.876C206.271 235.519 211.518 242.663 219.161 243.833ZM218.556 247.787C228.383 249.291 237.568 242.544 239.072 232.717C240.576 222.89 233.828 213.705 224.002 212.201C214.175 210.698 204.99 217.445 203.486 227.271C201.982 237.098 208.73 246.283 218.556 247.787Z" fill="white"/>
<path fill-rule="evenodd" clip-rule="evenodd" d="M226.725 194.407C234.368 195.577 241.512 190.329 242.681 182.686C243.851 175.043 238.603 167.899 230.96 166.729C223.317 165.56 216.173 170.808 215.004 178.451C213.834 186.094 219.082 193.238 226.725 194.407ZM226.12 198.361C235.947 199.865 245.132 193.118 246.635 183.291C248.139 173.464 241.392 164.279 231.565 162.775C221.738 161.272 212.553 168.019 211.05 177.846C209.546 187.672 216.293 196.858 226.12 198.361Z" fill="white"/>
<path fill-rule="evenodd" clip-rule="evenodd" d="M132.174 230.521C139.817 231.69 146.961 226.442 148.131 218.799C149.3 211.156 144.052 204.012 136.409 202.843C128.766 201.673 121.622 206.921 120.453 214.564C119.283 222.207 124.531 229.351 132.174 230.521ZM131.569 234.474C141.396 235.978 150.581 229.231 152.085 219.404C153.588 209.578 146.841 200.392 137.014 198.889C127.188 197.385 118.003 204.132 116.499 213.959C114.995 223.786 121.742 232.971 131.569 234.474Z" fill="white"/>
<path fill-rule="evenodd" clip-rule="evenodd" d="M139.738 181.099C147.381 182.268 154.525 177.02 155.694 169.377C156.864 161.734 151.616 154.59 143.973 153.421C136.33 152.251 129.186 157.499 128.016 165.142C126.847 172.785 132.095 179.929 139.738 181.099ZM139.133 185.053C148.959 186.556 158.144 179.809 159.648 169.982C161.152 160.156 154.405 150.971 144.578 149.467C134.751 147.963 125.566 154.71 124.062 164.537C122.559 174.364 129.306 183.549 139.133 185.053Z" fill="white"/>
<path d="M112.452 171.814C117.952 170.269 123.238 167.92 127.605 164.754L143.682 168.909L139.318 153.289L139.221 152.935L139.002 153.238L132.1 152.148L121.425 149.47L116.006 148.611L112.452 171.814Z" fill="#34466B"/>
<path fill-rule="evenodd" clip-rule="evenodd" d="M120.652 155.442C84.9012 168.518 43.8809 154.322 24.3869 120.182C2.64782 82.0978 15.9261 33.617 54.0491 11.8998C92.1721 -9.81924 140.701 3.44503 162.442 41.5267C181.931 75.6711 173.278 118.167 143.809 142.248L143.686 168.911L120.652 155.442Z" fill="white"/>
<path d="M57.0879 82.8809C57.0239 81.857 56.7679 80.7691 56.3839 79.8092C56.064 78.7213 55.68 77.7614 55.1041 76.8655L47.3607 81.0251L48.8326 72.3219C47.8087 72.0659 46.7208 72.002 45.6329 72.002C44.5449 72.002 43.457 72.0659 42.4971 72.3219L44.033 81.0251L36.1617 76.9295C35.6497 77.8254 35.2017 78.7853 34.8818 79.8092C34.5618 80.8331 34.3058 81.921 34.2418 82.9449L43.0091 84.1608L36.6736 90.3683C37.3776 91.1362 38.2095 91.9041 39.0414 92.4801C39.9373 93.12 40.8333 93.6959 41.7932 94.0799L45.6969 86.1446L49.6005 94.0159C50.5604 93.632 51.5204 93.056 52.3523 92.4801C53.2482 91.8401 54.0801 91.0722 54.7201 90.3043L48.3846 84.2248L57.0879 82.8809Z" fill="#EC0000"/>
<path d="M87.934 82.8809C87.87 81.857 87.614 80.7691 87.23 79.8092C86.91 78.7213 86.5261 77.7614 85.9501 76.8655L78.2068 81.0251L79.6787 72.3219C78.6547 72.0659 77.5668 72.002 76.4789 72.002C75.391 72.002 74.3031 72.0659 73.3432 72.3219L74.8791 81.0251L67.0077 76.9295C66.4958 77.8254 66.0478 78.7853 65.7278 79.8092C65.4079 80.8331 65.1519 81.921 65.0879 82.9449L73.8551 84.1608L67.5197 90.3683C68.2236 91.1362 69.0556 91.9041 69.8875 92.4801C70.7834 93.12 71.6793 93.6959 72.6393 94.0799L76.5429 86.1446L80.4466 94.0159C81.4065 93.632 82.3664 93.056 83.1984 92.4801C84.0943 91.8401 84.9262 91.0722 85.5662 90.3043L79.2307 84.2248L87.934 82.8809Z" fill="#EC0000"/>
<path d="M118.78 82.8809C118.716 81.857 118.46 80.7691 118.076 79.8092C117.756 78.7213 117.372 77.7614 116.796 76.8655L109.053 81.0251L110.525 72.3219C109.501 72.0659 108.413 72.002 107.325 72.002C106.237 72.002 105.149 72.0659 104.189 72.3219L105.725 81.0251L97.8538 76.9295C97.3418 77.8254 96.8939 78.7853 96.5739 79.8092C96.2539 80.8331 95.998 81.921 95.934 82.9449L104.701 84.1608L98.3658 90.3683C99.0697 91.1362 99.9016 91.9041 100.734 92.4801C101.629 93.12 102.525 93.6959 103.485 94.0799L107.389 86.1446L111.293 94.0159C112.253 93.632 113.212 93.056 114.044 92.4801C114.94 91.8401 115.772 91.0722 116.412 90.3043L110.077 84.2248L118.78 82.8809Z" fill="#EC0000"/>
<path d="M149.626 82.8809C149.562 81.857 149.306 80.7691 148.922 79.8092C148.602 78.7213 148.218 77.7614 147.642 76.8655L139.899 81.0251L141.371 72.3219C140.347 72.0659 139.259 72.002 138.171 72.002C137.083 72.002 135.995 72.0659 135.035 72.3219L136.571 81.0251L128.7 76.9295C128.188 77.8254 127.74 78.7853 127.42 79.8092C127.1 80.8331 126.844 81.921 126.78 82.9449L135.547 84.1608L129.212 90.3683C129.916 91.1362 130.748 91.9041 131.58 92.4801C132.476 93.12 133.371 93.6959 134.331 94.0799L138.235 86.1446L142.139 94.0159C143.099 93.632 144.059 93.056 144.89 92.4801C145.786 91.8401 146.618 91.0722 147.258 90.3043L140.923 84.2248L149.626 82.8809Z" fill="#EC0000"/>
</svg>
