<?xml version="1.0" encoding="UTF-8"?>
<svg width="46px" height="46px" viewBox="0 0 46 46" version="1.1" xmlns="http://www.w3.org/2000/svg" xmlns:xlink="http://www.w3.org/1999/xlink">
    <!-- Generator: Sketch 49.2 (51160) - http://www.bohemiancoding.com/sketch -->
    <title>Group 3@1x</title>
    <desc>Created with Sketch.</desc>
    <defs></defs>
    <g id="Page-1" stroke="none" stroke-width="1" fill="none" fill-rule="evenodd">
        <g id="Group-3">
            <circle id="Oval-2" fill="#EC0000" cx="23" cy="23" r="23"></circle>
            <g id="Group-30" transform="translate(11.000000, 10.000000)" fill="#FFFFFF">
                <path d="M17.5917918,10.2821273 C17.5917918,10.2821273 17.5917918,10.5936101 17.4606607,10.9274684 C21.8748256,11.8622718 25,14.0653819 25,16.6474567 C25,20.1192285 19.4272781,22.9676797 12.5219714,22.9900553 C12.4780286,23.0124309 12.4344345,22.9900553 12.3908404,22.9900553 C5.55075052,22.9900553 0,20.2303962 0,16.7806449 C0,14.1992804 3.38708777,12.1069829 7.47377378,10.9942401 C7.47377378,12.4188208 12.1285782,16.9365638 12.2377378,18.7614194 C12.2377378,18.7614194 12.2597093,18.9173384 12.2597093,19.0952778 C12.2597093,19.1844251 12.2597093,19.2732172 12.2377378,19.3623645 C13.2428436,18.8281911 13.2428436,17.1592545 13.2428436,17.1592545 C13.2428436,13.1977053 8.71917025,11.4396214 8.71917025,7.54484388 C8.71917025,6.03147102 9.41876848,4.91872819 10.0524524,4.60689027 L10.0524524,5.69761265 C10.0524524,8.52404336 14.9475476,11.6843324 14.9475476,14.2660521 L14.9475476,15.1117082 C16.0837844,14.6666821 16.0837844,12.552009 16.0837844,12.552009 C16.0837844,8.99144507 11.5384884,7.0106705 11.5384884,2.93795361 C11.5384884,1.42458075 12.2377378,0.311482751 12.8714218,0 L12.8714218,1.09072238 C12.8714218,3.91715309 17.5917918,7.05506656 17.5917918,10.2821273 Z" id="Fill-2-Copy-2"></path>
            </g>
        </g>
    </g>
</svg>