<svg id="Capa_1" data-name="Capa 1" xmlns="http://www.w3.org/2000/svg" viewBox="0 0 87.38 15.59"><defs><style>.cls-1{fill:#fff;}</style></defs><title>new_logo_santander_blanco</title><path class="cls-1" d="M13.13,7.2a3.34,3.34,0,0,0-.47-1.53L10.24,1.42a3.93,3.93,0,0,1-.4-1l-.1.17a3.39,3.39,0,0,0,0,3.4l2,3.39a3.37,3.37,0,0,1,0,3.39l-.11.18a3.54,3.54,0,0,0-.39-1L9.42,6.78l-1.15-2a3.84,3.84,0,0,1-.39-1l-.11.18a3.42,3.42,0,0,0,0,3.39h0l2,3.39a3.42,3.42,0,0,1,0,3.39l-.11.18a3.58,3.58,0,0,0-.39-1L6.77,9a3.77,3.77,0,0,1-.46-1.86C3.7,7.81,1.88,9.28,1.88,11c0,2.36,3.5,4.25,7.82,4.25s7.82-1.89,7.82-4.25C17.56,9.35,15.77,7.88,13.13,7.2Zm7.39,7.25A4.94,4.94,0,0,1,20.8,13a6.81,6.81,0,0,0,2.68.57c1.36,0,2.14-.43,2.14-1.32S25.05,11,23.7,10.35L23,10.06c-1.4-.61-2.32-1.39-2.32-2.93s1.17-2.75,3.53-2.75a8.27,8.27,0,0,1,2.68.43,5.55,5.55,0,0,1-.29,1.47,7.61,7.61,0,0,0-2.43-.43c-1.28,0-1.85.5-1.85,1.28s.57,1.22,1.6,1.65l.79.32c1.86.78,2.64,1.64,2.64,3.07C27.3,13.84,26,15,23.52,15A7,7,0,0,1,20.52,14.45Zm14.67-7v7.35h-1.5l-.07-.89A2.28,2.28,0,0,1,31.55,15c-1.93,0-3.25-1.43-3.25-3.89S29.69,7,32.41,7A9.27,9.27,0,0,1,35.19,7.42Zm-1.6,5.67V8.49a6,6,0,0,0-1.18-.07c-1.68,0-2.47,1-2.47,2.68,0,1.5.61,2.57,2,2.57A2.79,2.79,0,0,0,33.59,13.09Zm9.88-3.24v4.92h-1.6V10.13c0-1.18-.39-1.71-2-1.71a7.66,7.66,0,0,0-1.29.11v6.24H37V7.42A14,14,0,0,1,39.9,7C42.62,7,43.47,8.06,43.47,9.85ZM48,13.59a3.3,3.3,0,0,0,1.25-.21A12.67,12.67,0,0,1,49,14.74a3.55,3.55,0,0,1-1.35.25,2.25,2.25,0,0,1-2.57-2.5V4.74a5,5,0,0,1,1.6-.25V7.28h2.57a13.89,13.89,0,0,1-.14,1.39H46.72v3.6C46.72,13.2,47.19,13.59,48,13.59Zm8.68-6.17v7.35h-1.5l-.07-.89A2.29,2.29,0,0,1,53,15c-1.93,0-3.25-1.43-3.25-3.89S51.15,7,53.86,7A9.55,9.55,0,0,1,56.65,7.42ZM55,13.09V8.49a6,6,0,0,0-1.18-.07c-1.68,0-2.47,1-2.47,2.68,0,1.5.61,2.57,2,2.57A2.71,2.71,0,0,0,55,13.09Zm9.92-3.24v4.92H63.29V10.13c0-1.18-.39-1.71-2-1.71A7.66,7.66,0,0,0,60,8.53v6.24H58.4V7.42A14.09,14.09,0,0,1,61.33,7C64,7,64.93,8.06,64.93,9.85Zm8.18-5.36V14.77h-1.5l-.08-.93A2.24,2.24,0,0,1,69.43,15c-1.93,0-3.25-1.43-3.25-3.89S67.57,7,70.29,7a6.81,6.81,0,0,1,1.21.11V4.67A6.12,6.12,0,0,1,73.11,4.49Zm-1.61,8.6V8.56a8.08,8.08,0,0,0-1.29-.14c-1.6,0-2.35,1-2.35,2.68,0,1.5.61,2.57,2,2.57A2.87,2.87,0,0,0,71.5,13.09Zm9.75-1.46H76.07a2.11,2.11,0,0,0,2.43,1.93A5.82,5.82,0,0,0,81.07,13c-.07.43-.15,1-.25,1.46a5.88,5.88,0,0,1-2.4.47c-2.71,0-4-1.5-4-4C74.43,8.74,75.43,7,78,7a3.07,3.07,0,0,1,3.32,3.36A7.43,7.43,0,0,1,81.25,11.63Zm-5.18-1.36h3.64A1.68,1.68,0,0,0,78,8.35C76.78,8.38,76.18,9,76.07,10.27ZM86.92,7.1a7.37,7.37,0,0,1-.14,1.39,11.12,11.12,0,0,0-1.21-.07,11.5,11.5,0,0,0-1.18.07v6.28H82.78V7.42A9.28,9.28,0,0,1,85.53,7C86,7,86.57,7,86.92,7.1Z"/></svg>